<svg xmlns="http://www.w3.org/2000/svg" xmlns:xlink="http://www.w3.org/1999/xlink" viewBox="0 0 117.98 119.37"><defs><style>.cls-1{fill:url(#linear-gradient);}.cls-2{fill:url(#linear-gradient-2);}.cls-3{fill:url(#linear-gradient-3);}.cls-4{fill:url(#linear-gradient-4);}.cls-5{fill:url(#linear-gradient-5);}.cls-6{fill:url(#linear-gradient-6);}.cls-7{fill:url(#linear-gradient-7);}.cls-8{fill:url(#linear-gradient-8);}.cls-9{fill:url(#linear-gradient-9);}.cls-10{fill:url(#linear-gradient-10);}.cls-11{fill:url(#linear-gradient-11);}.cls-12{fill:url(#linear-gradient-12);}.cls-13{fill:url(#linear-gradient-13);}</style><linearGradient id="linear-gradient" x1="95.02" y1="121.42" x2="19.37" y2="-7.62" gradientUnits="userSpaceOnUse"><stop offset="0" stop-color="#45cdd4"/><stop offset="0.13" stop-color="#45c5d4"/><stop offset="0.34" stop-color="#45afd4"/><stop offset="0.6" stop-color="#458ad4"/><stop offset="0.89" stop-color="#4659d3"/><stop offset="1" stop-color="#4644d3"/></linearGradient><linearGradient id="linear-gradient-2" x1="111.16" y1="111.96" x2="35.51" y2="-17.09" xlink:href="#linear-gradient"/><linearGradient id="linear-gradient-3" x1="123.46" y1="104.75" x2="47.81" y2="-24.3" xlink:href="#linear-gradient"/><linearGradient id="linear-gradient-4" x1="67.68" y1="137.45" x2="-7.97" y2="8.4" xlink:href="#linear-gradient"/><linearGradient id="linear-gradient-5" x1="79.51" y1="130.51" x2="3.86" y2="1.47" xlink:href="#linear-gradient"/><linearGradient id="linear-gradient-6" x1="62.9" y1="140.25" x2="-12.75" y2="11.2" xlink:href="#linear-gradient"/><linearGradient id="linear-gradient-7" x1="104.16" y1="116.06" x2="28.51" y2="-12.99" xlink:href="#linear-gradient"/><linearGradient id="linear-gradient-8" x1="132.07" y1="99.7" x2="56.42" y2="-29.35" xlink:href="#linear-gradient"/><linearGradient id="linear-gradient-9" x1="144.1" y1="92.65" x2="68.45" y2="-36.4" xlink:href="#linear-gradient"/><linearGradient id="linear-gradient-10" x1="125.07" y1="103.8" x2="49.42" y2="-25.24" xlink:href="#linear-gradient"/><linearGradient id="linear-gradient-11" x1="88.54" y1="125.22" x2="12.89" y2="-3.83" xlink:href="#linear-gradient"/><linearGradient id="linear-gradient-12" x1="58.08" y1="143.08" x2="-17.57" y2="14.03" xlink:href="#linear-gradient"/><linearGradient id="linear-gradient-13" x1="46.96" y1="149.6" x2="-28.69" y2="20.55" xlink:href="#linear-gradient"/></defs><g id="Layer_2" data-name="Layer 2"><g id="OBJECTS"><path class="cls-1" d="M89.92,79a8.31,8.31,0,0,0-4.62.57,5.36,5.36,0,0,1-5.89-1l-2.79-2.72a11.75,11.75,0,0,1-3.53-8.4V54.62a8.39,8.39,0,0,1,2.54-6l7.22-7.06a5.16,5.16,0,0,1,4.41-1.48,8.51,8.51,0,0,0,3-.06,8.35,8.35,0,1,0-9.92-9.32,8.53,8.53,0,0,0,.29,3.58,5.78,5.78,0,0,1-1.54,5.8l-3.6,3.51a9.9,9.9,0,0,1-6.91,2.81H51.08a11.33,11.33,0,0,1-7.92-3.22L38.71,38.8a5.65,5.65,0,0,1-1.66-5.22,8.52,8.52,0,0,0,.11-2.95,8.35,8.35,0,1,0-9.34,9.46,8.49,8.49,0,0,0,3-.16,5.43,5.43,0,0,1,5.09,1.31l4.54,4.44a13.52,13.52,0,0,1,4.08,9.69v13.2a12.35,12.35,0,0,1-3.73,8.85l-2,1.93a4.75,4.75,0,0,1-5.71.72A8.33,8.33,0,0,0,20.64,86a8.35,8.35,0,1,0,16.6,1.16v0A2.54,2.54,0,0,1,38,85.33L45.54,78a10.64,10.64,0,0,1,7.43-3H67a8.42,8.42,0,0,1,5.9,2.4l5.3,5.18a6.65,6.65,0,0,1,2.08,4.74,8.52,8.52,0,0,0,.19,1.79,8.35,8.35,0,1,0,9.49-10Z"/><circle class="cls-2" cx="58.86" cy="22.75" r="8.04"/><circle class="cls-3" cx="97.57" cy="60.6" r="8.04"/><circle class="cls-4" cx="22.63" cy="60.6" r="8.04"/><circle class="cls-5" cx="61.18" cy="99.25" r="8.04"/><path class="cls-6" d="M9.65,41.18a4.83,4.83,0,1,1-4.83-4.82A4.82,4.82,0,0,1,9.65,41.18Z"/><path class="cls-7" d="M43.78,4.82A4.83,4.83,0,1,1,39,0,4.83,4.83,0,0,1,43.78,4.82Z"/><circle class="cls-8" cx="77.54" cy="6.68" r="4.82"/><path class="cls-9" d="M117.23,38.58a4.82,4.82,0,1,1-4.82-4.82A4.82,4.82,0,0,1,117.23,38.58Z"/><path class="cls-10" d="M118,83.47a4.83,4.83,0,1,1-4.83-4.82A4.83,4.83,0,0,1,118,83.47Z"/><path class="cls-11" d="M87.1,114.55a4.82,4.82,0,1,1-4.82-4.83A4.82,4.82,0,0,1,87.1,114.55Z"/><path class="cls-12" d="M45.28,113a4.83,4.83,0,1,1-4.83-4.82A4.83,4.83,0,0,1,45.28,113Z"/><path class="cls-13" d="M10.16,78.59a4.83,4.83,0,1,1-4.83-4.82A4.83,4.83,0,0,1,10.16,78.59Z"/></g></g></svg>